<?xml version="1.0" encoding="utf-8"?>
<!-- Generator: Adobe Illustrator 22.1.0, SVG Export Plug-In . SVG Version: 6.00 Build 0)  -->
<svg version="1.1" id="Vector" xmlns="http://www.w3.org/2000/svg" xmlns:xlink="http://www.w3.org/1999/xlink" x="0px" y="0px"
	 viewBox="0 0 1200 1200" style="enable-background:new 0 0 1200 1200;" xml:space="preserve">
<style type="text/css">
	.st0{fill:none;stroke:#FD8369;stroke-width:8;stroke-linecap:round;stroke-miterlimit:10;}
	.st1{fill:#FD8369;}
	.st2{fill:#56CAD8;}
	.st3{fill:#74D5DE;}
	.st4{fill:#FFB594;}
	.st5{fill:#DE8E68;}
	.st6{fill:#4428BF;}
	.st7{fill:#5331E9;}
	.st8{fill:#F2AB8C;}
	.st9{fill:none;}
	.st10{fill:#4D2DD6;}
	.st11{fill:none;stroke:#74D5DE;stroke-width:9;stroke-linecap:round;stroke-miterlimit:10;}
	.st12{opacity:0.5;fill:#F7F7F7;enable-background:new    ;}
</style>
<title>Artboard 1</title>
<line class="st0" x1="650.5" y1="434.4" x2="757.1" y2="437.2"/>
<polygon class="st1" points="244.9,672.4 244.9,850.1 403.7,938.3 667.7,868.3 671,687.8 491.3,608 "/>
<path class="st2" d="M537.4,604.7c5-5.7,138.3,49.4,157.3,75.9S581.6,907,527.9,946.8c-6-4.1-20.5-14.5-20.5-14.5
	s45.2-138.7,86.3-185.5c-10.4-2.8-44.2-11.7-44.2-11.7l-37.1-116C518.2,616.7,530.8,612.1,537.4,604.7z"/>
<path class="st3" d="M512.3,619.2l182.3,373.2l-26.4,11c0,0-134.5-169.1-138.8-181.7c-7.9-4.7-137.3-107.1-151.9-180.8
	C398.2,644.5,477.6,637,512.3,619.2z"/>
<path class="st4" d="M580.2,407.7c10.7,7.7,22.5,23.4,28.7,77.3c10.8-5,73.7-35.1,73.7-35.1s15.3,8.6,12.2,12.8
	s-76.5,79.8-98.2,84.6c-17,3.9-59.8-52.6-60.9-58.7s18.9-72.3,18.9-72.3L580.2,407.7z"/>
<ellipse transform="matrix(0.424 -0.9056 0.9056 0.424 2.8975 887.8214)" class="st5" cx="699.5" cy="441.6" rx="26.6" ry="22.1"/>
<path class="st6" d="M495,340.5c33-23.7,104.7,47.1,103,60.3s-42.3,65.6-69.2,52.9S471.5,357.3,495,340.5z"/>
<g>
	<path class="st7" d="M459,309.4c-134.1,0-103.7,307.7-88.3,325.1c35.9,19.9,151.1-8.1,166.7-29.9C549.8,586.8,581,309.4,459,309.4z
		"/>
</g>
<path class="st4" d="M322.8,414.6c-7.7,10.6-44.5,106-35.3,133.3c16.4,48,129.4,136.8,129.4,136.8c2-8,6.9-31,6.9-31
	s-77.2-107.3-81.2-115.4c6.3-9.8,33.9-63.7,36.5-91.8S322.8,414.6,322.8,414.6z"/>
<path class="st8" d="M478,330.1c0,9.9-42.9,9.3-42.9,0v-62.9H478V330.1z"/>
<ellipse transform="matrix(0.9998 -1.884820e-02 1.884820e-02 0.9998 -4.522 8.9634)" class="st4" cx="473.3" cy="244.4" rx="40.5" ry="60"/>
<circle class="st5" cx="431.9" cy="258.7" r="11.7"/>
<path d="M546.9,163.9c0-14.4-11-21-20-21c-16.2,0-25.3,13-40,13c-15.8,0-19.5-9-36-9c-31.9,0-28.7,32.9-35.3,43.3
	c-8.3,13-13.7,26.3-13.7,35.7c0,17.3,10.6,24.9,19.3,28.1c2.7-5.9,9.6-8.4,15.5-5.7c2.6,1.2,4.7,3.4,5.9,6c6.1-2.6,6.5-7.2,6.5-8.8
	c0-5.5-5.9-15,2.4-23.6c7.1-7.3,46.5-4.9,53.5-13.3c2.7,4,5.3,12.3,6,14.6c2,0.4,4,0.7,6,0.7c17.7,0,24-9,24-15c0-9-8-12.3-8-18
	C532.9,180.8,546.9,182.1,546.9,163.9z"/>
<line class="st9" x1="525.6" y1="304.1" x2="531.4" y2="305.3"/>
<path class="st10" d="M388,340.1c36.4,16.6,9.9,110-2.4,114.8s-77.2-4.8-79.2-33.2S362.2,328.3,388,340.1z"/>
<polygon points="667.7,1002.3 692.5,991.9 744,991.9 747.3,1000.4 678.1,1027.6 "/>
<polygon points="507.7,931.9 529.3,947.9 555.5,992.2 549.9,999.4 491.3,953.7 "/>
<path class="st3" d="M1048.6,467.2c5,16.4-37,19.8-39.3,11.9S1043.2,449.7,1048.6,467.2z"/>
<path class="st3" d="M1042,509.5c7.8,15.2-32.8,26.1-36.5,18.8S1033.6,493.2,1042,509.5z"/>
<path class="st3" d="M1044.4,559c7.8,15.2-32.8,26.1-36.5,18.8S1036,542.8,1044.4,559z"/>
<path class="st3" d="M1045.9,605c7.1,13.8-28.3,23-31.7,16.3S1038.3,590.2,1045.9,605z"/>
<path class="st3" d="M1050.4,656c7.1,13.8-28.3,23-31.7,16.3S1042.7,641.2,1050.4,656z"/>
<path class="st11" d="M940.3,852.2c1.2-5.6,59.8-47.4,73.7-112.1c22.6-105.4-24.9-170.8-8.8-246.1c3-14.2,14-58.8,40.5-72"/>
<path class="st3" d="M989.9,722.5c13.5-7.8,24.3,27.2,17.8,30.9S975.4,730.9,989.9,722.5z"/>
<path class="st3" d="M989.1,681.6c10.3-11.7,31.7,18.1,26.7,23.7S978.1,694.1,989.1,681.6z"/>
<path class="st3" d="M990.5,633.7c10.3-11.7,31.7,18.1,26.7,23.7S979.5,646.1,990.5,633.7z"/>
<path class="st3" d="M983.2,593.7c8-13.4,34.5,11.8,30.7,18.3S974.7,608,983.2,593.7z"/>
<path class="st3" d="M972.6,538.5c10-11.9,32.1,17.2,27.3,22.9S961.9,551.3,972.6,538.5z"/>
<path class="st3" d="M974.6,480c11-11,30.4,20.1,25.1,25.4S962.7,491.8,974.6,480z"/>
<path class="st3" d="M1010,405.2c11-11,30.4,20.1,25.1,25.4S998.1,416.9,1010,405.2z"/>
<path class="st3" d="M939.1,676.7c-2.9-7.8-5-29.3-5-39.7c0-69.9-41.5-83-62.7-83c-41.3,0-64.6,38.2-64.6,69.5
	c0,27.7,11.8,52.4,26.2,73.2c7.8-9.5,21.8-10.9,31.3-3.1c9.5,7.8,10.9,21.8,3.1,31.3c-1.9,2.4-4.3,4.3-7,5.7
	c11.9,13.3,21.8,23.6,24.2,30.5c8.3,23.1,4.7,34,9.4,45.3c11.5,27.5,23.2,41.8,37.2,40.6c32.4-2.8,45.3-30.3,45.3-101.4
	C976.5,725.4,950.3,706.4,939.1,676.7z"/>
<polygon class="st12" points="861.5,600.3 671,644.7 671,212.8 861.5,162.8 "/>
<path class="st1" d="M992.2,980.1h-88.4c-4.1,0-7.8-2.6-9.1-6.6l-43.9-133.3c-1.7-5,1.1-10.4,6.1-12.1c1-0.3,2-0.5,3-0.5h176.8
	c5.3,0,9.6,4.3,9.6,9.6c0,1-0.2,2-0.5,3l-44.4,133.3C1000,977.4,996.3,980.1,992.2,980.1z"/>
</svg>
